<svg width="280" height="151" id="Layer_1" data-name="Layer 1" xmlns="http://www.w3.org/2000/svg" viewBox="0 0 185.82191 63.1571"><defs><style>.cls-1{fill:#7b3fe4;} .cls-2{fill:#FFF;}</style></defs><path class="cls-1" d="M42.97131,25.35444a2.28031,2.28031,0,0,0-2.2771,0l-5.224,3.112-3.5496,2.0296-5.224,3.1121a2.28035,2.28035,0,0,1-2.27707,0l-4.15237-2.4355a2.33726,2.33726,0,0,1-1.13856-1.962V24.40729a2.19723,2.19723,0,0,1,1.13856-1.96194l4.0854-2.36787a2.28038,2.28038,0,0,1,2.27714,0l4.0854,2.36787a2.3373,2.3373,0,0,1,1.1385,1.96194v3.11205l3.5496-2.09725V22.31a2.19719,2.19719,0,0,0-1.1385-1.96194L26.69661,15.883a2.28025,2.28025,0,0,0-2.27707,0l-7.702,4.46512A2.19723,2.19723,0,0,0,15.579,22.31v8.9979a2.19719,2.19719,0,0,0,1.13856,1.9619l7.702,4.4651a2.27986,2.27986,0,0,0,2.27707,0l5.224-3.0444,3.5496-2.0972,5.224-3.0444a2.2804,2.2804,0,0,1,2.2771,0l4.0854,2.3679a2.33726,2.33726,0,0,1,1.1385,1.9619v4.8034a2.19715,2.19715,0,0,1-1.1385,1.9619l-4.0854,2.4356a2.28041,2.28041,0,0,1-2.2771,0l-4.0854-2.3679a2.33716,2.33716,0,0,1-1.1386-1.962v-3.112l-3.5496,2.0972V40.847a2.19715,2.19715,0,0,0,1.1385,1.9619l7.702,4.4652a2.28041,2.28041,0,0,0,2.2771,0l7.702-4.4652a2.33713,2.33713,0,0,0,1.1386-1.9619v-8.9979a2.19724,2.19724,0,0,0-1.1386-1.9619Z"/><path class="cls-2" d="M66.022,44.69714v-7.47a5.07659,5.07659,0,0,0,4.0232,1.59c4.3863,0,7.3507-3.09,7.3507-7.8s-2.7224-7.8-6.9877-7.8a5.3422,5.3422,0,0,0-4.3862,1.89v-1.65h-4.2047v21.24Zm3.509-9.48c-2.2688,0-3.751-1.68-3.751-4.2,0-2.55,1.4822-4.23,3.751-4.23,2.2082,0,3.7207,1.68,3.7207,4.23C73.25171,33.53714,71.73921,35.21714,69.531,35.21714Z"/><path class="cls-2" d="M86.94381,38.81714a7.80378,7.80378,0,1,0-8.0465-7.8A7.6623,7.6623,0,0,0,86.94381,38.81714Zm0-3.6c-2.2688,0-3.8115-1.71-3.8115-4.2,0-2.52,1.5427-4.23,3.8115-4.23,2.2687,0,3.8114,1.71,3.8114,4.23C90.75521,33.50714,89.21251,35.21714,86.94381,35.21714Z"/><path class="cls-2" d="M101.73691,38.57714v-21.69h-4.2047v21.69Z"/><path class="cls-2" d="M114.37631,23.45713l-3.1762,9.75-3.2065-9.75h-4.2954l5.5357,15-2.2385,6.24h4.0232l2.1478-6.18,5.5355-15.06Z"/><path class="cls-2" d="M130.51091,24.95713a5.3261,5.3261,0,0,0-4.205-1.74c-4.447,0-7.139,3.09-7.139,7.8s2.692,7.8,7.2,7.8a5.09071,5.09071,0,0,0,4.174-1.77v1.98a2.22852,2.22852,0,0,1-2.208,2.4h-7.018v3.27h7.683c3.449,0,5.748-2.07,5.748-5.22v-16.02h-4.235Zm-3.479,10.26c-2.238,0-3.721-1.65-3.721-4.2s1.483-4.23,3.721-4.23c2.269,0,3.751,1.68,3.751,4.23S129.30091,35.21714,127.03191,35.21714Z"/><path class="cls-2" d="M145.34591,38.81714a7.80377,7.80377,0,1,0-8.046-7.8A7.66263,7.66263,0,0,0,145.34591,38.81714Zm0-3.6c-2.269,0-3.811-1.71-3.811-4.2,0-2.52,1.542-4.23,3.811-4.23s3.812,1.71,3.812,4.23C149.15791,33.50714,147.61491,35.21714,145.34591,35.21714Z"/><path class="cls-2" d="M159.9269,38.57714v-8.28a3.13678,3.13678,0,0,1,3.146-3.36,2.91444,2.91444,0,0,1,2.935,3.15v8.49h4.235v-9.42c0-3.48-2.239-5.94-5.687-5.94a5.125,5.125,0,0,0-4.629,2.34v-2.1h-4.234v15.12Z"/></svg>