<?xml version="1.0" encoding="utf-8"?>
<!-- Generator: Adobe Illustrator 19.2.1, SVG Export Plug-In . SVG Version: 6.00 Build 0)  -->
<svg width="280" height="151" version="1.1" id="layer" xmlns="http://www.w3.org/2000/svg" xmlns:xlink="http://www.w3.org/1999/xlink" x="0px" y="0px"
	 viewBox="130 120 400 400" style="enable-background:new 0 0 652 652;" xml:space="preserve">
<style type="text/css">
	.st0{fill:#FFFFFF;}
	.st1{fill:#03316C;}
	.st2{fill:#FFFFFF;}
</style>
<path class="st0" d="M70.1,264.3l-49.9,28.8v57.6l49.9,28.8l49.9-28.8v-57.6L70.1,264.3z M70.1,264.3l-49.9,28.8v57.6l49.9,28.8
	l49.9-28.8v-57.6L70.1,264.3z"/>
<path class="st1" d="M89.8,357h-7.1l-8.5-7.8v-4l8.8-8.4v-13.3l11.5-7.5l13.1,9.9L89.8,357z M60.4,336l1.3-12.5l-4.3-11.2h25.4
	l-4.2,11.2l1.2,12.5l-9.8,0H60.4z M66.2,349.2l-8.5,7.9h-7.2l-17.9-31.2l13.2-9.8l11.6,7.4v13.3l8.8,8.4V349.2z M50.4,289.2h39.3
	l4.7,20H45.8L50.4,289.2z M70.1,264.3l-49.9,28.8v57.6l49.9,28.8l49.9-28.8v-57.6L70.1,264.3z"/>
<g>
	<g>
		<g>
			<defs>
				<path id="SVGID_1_" d="M70.1,264.3v24.9h19.6l4.7,20H70.1v3h12.8l-4.2,11.2l1.2,12.5l-9.8,0v43.6l49.9-28.8v-57.6L70.1,264.3z
					 M83,323.5L83,323.5l11.5-7.5l13.1,9.9L89.8,357h-7.1l-8.5-7.8v-4l8.8-8.4V323.5z"/>
			</defs>
			<clipPath id="SVGID_2_">
				<use xlink:href="#SVGID_1_"  style="overflow:visible;"/>
			</clipPath>
		</g>
	</g>
</g>
<g>
	<g>
		<g>
			<defs>
				<path id="SVGID_3_" d="M70.1,264.3l-49.9,28.8v57.6l49.9,28.8V336h-9.7l1.3-12.5l-4.3-11.2h12.7v-3H45.9l4.6-20h19.7V264.3z
					 M32.6,325.9L32.6,325.9l13.2-9.8l11.6,7.4v13.3l8.8,8.4v4l-8.5,7.9h-7.2L32.6,325.9z"/>
			</defs>
			<clipPath id="SVGID_4_">
				<use xlink:href="#SVGID_3_"  style="overflow:visible;"/>
			</clipPath>
		</g>
	</g>
</g>
<path class="st2" d="M176,348.6c-13.2,0-22.9-10.3-22.9-23c0-12.7,9.8-23.3,23-23.3c8.4,0,13.6,3.1,17.7,7.6l-6.3,6.8
	c-3.1-3.3-6.4-5.5-11.5-5.5c-7.4,0-12.8,6.4-12.8,14.2c0,8,5.5,14.4,13.3,14.4c4.8,0,8.3-2.3,11.5-5.5l6.1,6.1
	C189.7,345.1,184.6,348.6,176,348.6"/>
<path class="st2" d="M213.4,348.6h-10.2v-46.2h10.2v10.8c2.8-6.6,7.9-11.2,15.7-10.8v10.8h-0.6c-8.9,0-15.1,5.8-15.1,17.6V348.6z"/>
<polygon class="st2" points="282.4,302.2 259.9,361 249.6,361 254.5,348.6 235.2,302.2 246.1,302.2 259.2,336.5 271.8,302.2 "/>
<path class="st2" d="M312.4,311.1c-6.9,0-12.9,5.6-12.9,14.3c0,8.7,6.1,14.3,12.9,14.3c7,0,12.7-5.5,12.7-14.3
	C325.1,316.6,319.3,311.1,312.4,311.1 M314.7,348.5c-7.3,0-11.9-3.7-15-7.8V361h-10.2v-58.8h10.2v8.3c3.3-4.6,7.9-8.3,15-8.3
	c10.5,0,20.7,8.3,20.7,23.1C335.4,340.1,325.3,348.5,314.7,348.5"/>
<path class="st2" d="M357.7,311.9v21.8c0,3.9,2,5.5,5.5,5.5h4v9.1h-7c-7.4,0-12.7-3.3-12.7-13v-23.4h-5.6v-8.7h5.6V291h10.2v12.2
	h9.5v8.7H357.7z"/>
<path class="st2" d="M399.3,311.1c-8.2,0-13.4,6.4-13.4,14.2c0,7.9,5.6,14.4,13.5,14.4c8.2,0,13.4-6.4,13.4-14.2
	C413,317.6,407.3,311.1,399.3,311.1 M399.3,348.6c-13.5,0-23.5-10.3-23.5-23c0-12.8,10.1-23.3,23.7-23.3c13.6,0,23.6,10.3,23.6,23.1
	C423.1,338,413.1,348.6,399.3,348.6"/>
<path class="st2" d="M520.4,311.1c-8.2,0-13.4,6.4-13.4,14.2c0,7.9,5.6,14.4,13.5,14.4c8.2,0,13.4-6.4,13.4-14.2
	C534,317.6,528.4,311.1,520.4,311.1 M520.4,348.6c-13.5,0-23.5-10.3-23.5-23c0-12.8,10.1-23.3,23.7-23.3c13.6,0,23.6,10.3,23.6,23.1
	C544.2,338,534.1,348.6,520.4,348.6"/>
<path class="st2" d="M604.6,302.2c9.7,0,15.6,6.1,15.6,17v29.3H610v-26.2c0-7.1-3.3-10.8-9-10.8c-5.5,0-9.5,3.9-9.5,11v26.1h-10.2
	v-26.3c0-6.9-3.4-10.8-9-10.8c-5.6,0-9.5,4.2-9.5,11.1v26h-10.2v-46.3h10.2v7.6c2.9-3.9,6.7-7.6,13.5-7.6c6.4,0,10.8,3.1,13.2,7.8
	C593.2,305.3,597.9,302.2,604.6,302.2"/>
<polygon class="st2" points="441.8,339.2 441.8,344.4 441.5,344.9 437,347.4 436.4,347.4 432,344.9 431.7,344.4 431.7,339.2 
	432,338.7 436.4,336.2 437,336.2 441.5,338.7 "/>
<path class="st2" d="M472.7,348.5c-13.2-0.3-22.7-10.8-22.5-23.5c0.2-12.7,10.2-23.1,23.5-22.8c8.4,0.2,13.6,3.4,17.6,8l-6.4,6.7
	c-3-3.3-6.3-5.7-11.4-5.8c-7.4-0.1-12.9,6.1-13,14c-0.2,8,5.2,14.5,13,14.6c4.8,0.1,8.4-2.1,11.6-5.3l6,6.2
	C486.6,345.3,481.4,348.7,472.7,348.5"/>
</svg>
