<?xml version="1.0" encoding="utf-8"?>
<!-- Generator: Adobe Illustrator 19.2.1, SVG Export Plug-In . SVG Version: 6.00 Build 0)  -->
<svg width="280" height="151" version="1.1" id="layer" xmlns="http://www.w3.org/2000/svg" xmlns:xlink="http://www.w3.org/1999/xlink" x="0px" y="0px"
	 viewBox="0 0 652 652" style="enable-background:new 0 0 652 652;" xml:space="preserve">
<g id="Symbols">
	<g id="Logo-_x2F_-Black">
		<path fill="white" id="Combined-Shape" d="M577.6,299.9c4.8-13.2,25.1-19.5,37.3-19.5h5.6v29.3c-7,0-14.1-0.4-20.8,1.9
			c-4.7,1.5-8.8,4.3-11.9,8.1c-5.7,7.7-5.2,12.4-5.7,19.6c-0.4,7-0.2,11.8-0.2,18.8v52h-32.1V281.8h27.8L577.6,299.9z M187.7,379.8
			c-23,22.5-42.8,33.4-75.4,33.4c-54.3,0-91.8-37.9-91.8-91.4c0-54.9,42.5-90.9,92.4-90.9c29.1,0,56.7,12.7,75.6,34.8l-23.2,22.2
			c-15.7-16.7-32.9-25.4-53.2-25.4c-32.6,0-59.2,25.1-59.2,59.2c0,35.8,25.6,59.7,59.9,59.7c21.5,0,36-8.7,52.4-25.1L187.7,379.8z
			 M325.3,384.6c-13.8,19.6-31.9,28.3-59,28.3c-40.8,0-67.2-30-67.2-67.7c0-35.1,25.4-67.5,66.7-67.5c40.6,0,68.1,29,68.1,69.6
			c0,2.9-0.2,4.3-0.2,7.3H230.4c3.1,19.1,17.7,29.7,36,29.7c13.8,0,23-3.9,31.9-12.6L325.3,384.6z M301.6,329.2
			c-4.3-14.9-18.1-24.2-35.3-24.2c-15.9,0-28.3,8-34.6,24.2H301.6z M350.3,231.6h32.1v178h-32.1V231.6z M524.9,384.6
			c-13.8,19.6-31.9,28.3-59,28.3c-40.8,0-67.2-30-67.2-67.7c0-35.1,25.4-67.5,66.7-67.5c40.6,0,68.2,29,68.2,69.6
			c0,2.9-0.2,4.3-0.2,7.3H429.9c3.1,19.1,17.7,29.7,36,29.7c13.8,0,23-3.9,31.9-12.6L524.9,384.6z M501.2,329.2
			c-4.3-14.9-18.1-24.2-35.3-24.2c-15.9,0-28.3,8-34.6,24.2H501.2z"/>
	</g>
</g>
</svg>
